<svg width="169" height="169" viewBox="0 0 169 169" fill="none" xmlns="http://www.w3.org/2000/svg">
<rect width="169" height="169" rx="10" fill="#EAF2FF"/>
<mask id="mask0_187_4362" style="mask-type:alpha" maskUnits="userSpaceOnUse" x="68" y="71" width="33" height="27">
<path d="M79.9625 80.1217C79.9625 81.9626 78.5299 83.4549 76.7627 83.4549C74.9954 83.4549 73.5628 81.9626 73.5628 80.1217C73.5628 78.2808 74.9954 76.7885 76.7627 76.7885C78.5299 76.7885 79.9625 78.2808 79.9625 80.1217Z" fill="#B4DBFF"/>
<path fill-rule="evenodd" clip-rule="evenodd" d="M68.5007 74.5004C68.5007 72.6596 69.9334 71.1672 71.7006 71.1672H97.2996C99.0668 71.1672 100.499 72.6596 100.499 74.5004V94.4996C100.499 96.3405 99.0669 97.8328 97.2996 97.8328H95.1874C95.1804 97.8328 95.1734 97.8329 95.1664 97.8329H72.4299C72.4239 97.8329 72.4178 97.8328 72.4118 97.8328H71.7006C69.9334 97.8328 68.5007 96.3405 68.5007 94.4996V74.5004ZM71.7006 73.6671H97.2996C97.7414 73.6671 98.0996 74.0402 98.0996 74.5004V84.8869L91.1474 77.8337L79.3198 89.8332L75.8357 86.2984L70.9006 91.3052V74.5004C70.9006 74.0402 71.2588 73.6671 71.7006 73.6671Z" fill="#B4DBFF"/>
</mask>
<g mask="url(#mask0_187_4362)">
<rect x="68.5005" y="68.4998" width="31.9987" height="31.9987" fill="#B4DBFF"/>
</g>
</svg>
