<svg width="239" height="239" viewBox="0 0 239 239" fill="none" xmlns="http://www.w3.org/2000/svg">
<path d="M25.8773 145.524L21.6323 145.632V145.636L25.8773 145.524Z" fill="#66B7F0"/>
<path d="M238.043 119.347C238.043 185.082 184.754 238.371 119.019 238.371C53.2832 238.371 -0.00585938 185.082 -0.00585938 119.347C-0.00585938 53.6113 53.2832 0.322266 119.019 0.322266C184.754 0.322266 238.043 53.6113 238.043 119.347Z" fill="url(#paint0_linear_149_3968)"/>
<path d="M68.378 154.295C62.959 154.295 58.1903 153.32 54.0719 151.369C49.9534 149.418 46.7562 146.627 44.4803 142.996C42.2043 139.312 41.0663 134.922 41.0663 129.828V97.0704H59.1115V129.015C59.1115 132.646 59.9786 135.329 61.7127 137.063C63.5009 138.743 65.8311 139.582 68.7032 139.582C71.7378 139.582 74.0409 138.715 75.6124 136.981C77.2381 135.247 78.0509 132.863 78.0509 129.828V97.0704H96.3401V129.828C96.3401 134.651 95.1479 138.905 92.7635 142.59C90.3792 146.275 87.0736 149.147 82.8468 151.206C78.6741 153.265 73.8512 154.295 68.378 154.295Z" fill="white"/>
<path d="M104.121 152.994V97.0704H120.378L142.325 126.739V97.0704H157.281V152.994H141.024L119.077 124.545V152.994H104.121Z" fill="white"/>
<path d="M166.196 152.994V97.0704H184.566V152.994H166.196Z" fill="white"/>
<path d="M46.1524 193.637V168.973H52.7713L59.3554 180.887L65.8698 168.973H72.2449V193.637H67.2633V175.627L60.2612 188.133H58.2406L51.134 175.627V193.637H46.1524Z" fill="white"/>
<path d="M74.9069 193.637L84.5217 168.973H90.0956L99.6059 193.637H94.2411L92.7083 189.422H81.8045L80.2717 193.637H74.9069ZM83.407 184.928H91.1407L87.3086 174.268L83.407 184.928Z" fill="white"/>
<path d="M102.251 193.637V168.973H112.18C113.411 168.973 114.583 169.101 115.698 169.356C116.836 169.588 117.858 169.995 118.764 170.575C119.67 171.156 120.378 171.969 120.889 173.014C121.423 174.036 121.69 175.348 121.69 176.95C121.69 178.135 121.493 179.203 121.098 180.155C120.703 181.107 120.122 181.92 119.356 182.594C118.59 183.267 117.672 183.79 116.604 184.161L122.073 193.637H116.465L111.657 184.963H107.233V193.637H102.251ZM107.233 180.538H111.831C112.551 180.538 113.202 180.48 113.782 180.364C114.386 180.225 114.897 180.016 115.315 179.737C115.756 179.459 116.093 179.087 116.325 178.622C116.581 178.158 116.708 177.589 116.708 176.915C116.732 176.056 116.546 175.394 116.151 174.93C115.779 174.442 115.245 174.105 114.549 173.92C113.875 173.711 113.074 173.606 112.145 173.606H107.233V180.538Z" fill="white"/>
<path d="M126.269 193.637V168.973H131.251V179.215H134.735L141.145 168.973H146.858L138.915 180.957L146.858 193.637H141.005L134.944 183.813H131.251V193.637H126.269Z" fill="white"/>
<path d="M149.675 193.637V168.973H167.442V173.606H154.657V179.18H165.63V183.639H154.657V189.039H167.442V193.637H149.675Z" fill="white"/>
<path d="M176.537 193.637V173.606H169.013V168.973H189.113V173.606H181.554V193.637H176.537Z" fill="white"/>
<path d="M118.586 25.5748C118.638 25.5748 118.691 25.5748 118.745 25.5748C124.679 25.574 130.597 26.2815 140.852 27.8164C140.909 27.8255 140.964 27.8352 141.022 27.845C141.89 27.9897 141.89 27.9897 142.162 28.0801C142.166 32.0872 142.172 36.0935 142.174 40.1006C142.175 40.1895 142.175 40.1895 142.175 40.2807C142.175 41.5699 142.176 42.8591 142.177 44.1491C142.177 44.7813 142.178 45.4135 142.178 46.0457C142.178 46.109 142.178 46.1715 142.178 46.2363C142.179 48.2752 142.181 50.3142 142.184 52.3524C142.187 54.4479 142.189 56.5433 142.19 58.6388C142.19 58.9349 142.19 59.231 142.19 59.5271C142.19 59.6153 142.19 59.6153 142.19 59.7042C142.19 60.6416 142.192 61.5789 142.193 62.5155C142.196 63.4589 142.196 64.4015 142.196 65.3441C142.196 65.855 142.196 66.3658 142.197 66.876C142.199 67.3439 142.199 67.8118 142.198 68.2797C142.198 68.4485 142.198 68.6173 142.199 68.7861C142.208 70.5289 141.86 71.9703 140.655 73.2897C140.603 73.3462 140.603 73.3462 140.551 73.4042C139.948 74.062 139.304 74.5593 138.545 75.0227C138.489 75.0574 138.433 75.0913 138.377 75.1267C132.992 78.47 126.839 80.3454 110.796 80.1186C108.197 79.5007 105.699 78.6094 103.349 77.3329C102.968 77.1272 102.582 76.9381 102.19 76.7558C100.439 75.9397 98.8728 74.9323 97.4796 73.5911C97.4246 73.5414 97.3696 73.4909 97.3139 73.4396C96.1889 72.3832 95.4859 70.9124 95.4241 69.3708C95.4136 68.924 95.4158 68.4771 95.4173 68.0303C95.4173 67.8578 95.4173 67.6845 95.4173 67.5119C95.4166 67.0395 95.4173 66.567 95.4188 66.0946C95.4196 65.6365 95.4196 65.1783 95.4188 64.7202C95.4188 63.7844 95.4196 62.8478 95.4211 61.912C95.4226 60.9859 95.4233 60.0591 95.4233 59.1331C95.4233 59.0751 95.4233 59.0178 95.4233 58.9583C95.4233 58.6652 95.4233 58.372 95.4233 58.0789C95.4241 56.0061 95.4256 53.9332 95.4279 51.8604C95.4301 49.847 95.4316 47.8337 95.4324 45.8204C95.4324 45.7586 95.4324 45.696 95.4324 45.6327C95.4331 45.0089 95.4331 44.385 95.4331 43.7611C95.4339 42.4907 95.4346 41.2203 95.4354 39.9499C95.4354 39.8911 95.4354 39.8331 95.4354 39.7728C95.4377 35.875 95.4407 31.9779 95.4452 28.0801C95.7707 28.0191 96.097 27.9588 96.4232 27.8985C96.5611 27.8729 96.5611 27.8729 96.702 27.8465C97.3365 27.729 97.9709 27.6182 98.6091 27.5203C98.7041 27.5052 98.799 27.4909 98.8969 27.4758C99.1999 27.4284 99.5028 27.3824 99.8057 27.3364C99.9127 27.3199 100.02 27.3033 100.127 27.2867C104.343 26.6425 108.573 26.1165 112.827 25.7963C112.908 25.7903 112.99 25.7835 113.073 25.7775C114.912 25.6403 116.743 25.5748 118.586 25.5748Z" fill="#51A8ED"/>
<path d="M118.586 25.5748C118.638 25.5748 118.691 25.5748 118.745 25.5748C124.679 25.574 130.597 26.2815 140.852 27.8164C140.909 27.8255 140.964 27.8352 141.022 27.845C141.89 27.9897 141.89 27.9897 142.162 28.0801C142.166 32.0872 142.172 36.0935 142.174 40.1006C142.175 40.1895 142.175 40.1895 142.175 40.2807C142.175 41.5699 142.176 42.8591 142.177 44.1491C142.177 44.7813 142.178 45.4135 142.178 46.0457C142.178 46.109 142.178 46.1715 142.178 46.2363C142.179 48.2752 142.181 50.3142 142.184 52.3524C142.187 54.4479 142.189 56.5433 142.19 58.6388C142.19 58.9349 142.19 59.231 142.19 59.5271C142.19 59.6153 142.19 59.6153 142.19 59.7042C142.19 60.6416 142.192 61.5789 142.193 62.5155C142.196 63.4589 142.196 64.4015 142.196 65.3441C142.196 65.855 142.196 66.3658 142.197 66.876C142.199 67.3439 142.199 67.8118 142.198 68.2797C142.198 68.4485 142.198 68.6173 142.199 68.7861C142.208 70.5289 141.86 71.9703 140.655 73.2897C140.603 73.3462 140.603 73.3462 140.551 73.4042C139.948 74.062 139.304 74.5593 138.545 75.0227C138.489 75.0574 138.433 75.0913 138.377 75.1267C133.988 77.8513 129.221 79.5045 124.153 80.3725C124.077 80.3853 124.002 80.3989 123.924 80.4125C122.37 80.6792 120.83 80.6852 119.256 80.6739C119.137 80.1646 119.082 79.6846 119.082 79.1617C119.082 79.0923 119.082 79.0238 119.081 78.9522C119.081 78.8068 119.08 78.6621 119.081 78.5167C119.081 78.2959 119.079 78.0751 119.077 77.8551C119.077 77.7127 119.077 77.571 119.077 77.4286C119.076 77.3638 119.075 77.299 119.075 77.232C119.08 76.5591 119.244 76.0362 119.705 75.5426C119.909 75.3513 120.127 75.1855 120.355 75.025C120.888 74.5744 121.2 74.0613 121.487 73.4306C121.523 73.3537 121.558 73.2769 121.595 73.197C121.664 73.0448 121.733 72.8918 121.802 72.7389C121.875 72.5739 121.953 72.4104 122.032 72.2469C122.259 71.7239 122.281 71.2831 122.245 70.7248C122.236 70.5764 122.228 70.4272 122.221 70.2787C122.216 70.2026 122.212 70.1273 122.207 70.0489C122.187 69.7001 122.171 69.3512 122.154 69.0016C122.147 68.8607 122.141 68.7205 122.134 68.5796C122.13 68.508 122.126 68.4364 122.123 68.3626C122.12 68.2888 122.116 68.2157 122.112 68.1396C122.105 67.9821 122.096 67.8239 122.089 67.6664C122.068 67.2497 122.048 66.8338 122.028 66.4171C122.015 66.1579 122.002 65.8987 121.989 65.6402C121.869 63.1921 121.749 60.7448 121.625 58.2975C121.6 57.7934 121.576 57.2893 121.552 56.7852C121.337 52.216 120.95 47.5466 119.846 43.101C119.769 42.7943 119.696 42.4877 119.623 42.181C119.593 42.0559 119.563 41.9308 119.533 41.8065C119.49 41.6264 119.448 41.4463 119.406 41.2663C119.38 41.1555 119.38 41.1555 119.353 41.0425C119.189 40.3169 119.085 39.5875 118.987 38.8506C118.939 38.4904 118.889 38.131 118.84 37.7716C118.831 37.7015 118.821 37.6314 118.811 37.5591C118.735 37.015 118.651 36.4725 118.558 35.9308C118.547 35.8607 118.534 35.7906 118.522 35.7183C118.5 35.5909 118.478 35.4629 118.456 35.3355C118.352 34.7259 118.251 34.1254 118.276 33.5053C118.226 33.5053 118.177 33.5053 118.125 33.5053C118.117 33.5829 118.11 33.6605 118.101 33.7411C118.054 34.1209 117.969 34.4916 117.885 34.8653C117.281 37.6826 116.991 40.5964 116.618 43.4514C116.609 43.5192 116.6 43.587 116.591 43.6563C116.48 44.5033 116.373 45.3502 116.266 46.1971C116.24 46.399 116.214 46.6017 116.189 46.8037C115.961 48.594 115.744 50.3843 115.54 52.1776C115.383 53.5542 115.212 54.9286 115.034 56.303C114.895 57.3827 114.762 58.4617 114.639 59.5437C114.511 60.671 114.376 61.7974 114.227 62.9224C114.207 63.0701 114.188 63.2178 114.169 63.3647C114.143 63.5689 114.116 63.7723 114.088 63.9765C114.081 64.0368 114.073 64.0971 114.066 64.1589C114.02 64.4851 113.964 64.7345 113.755 65.0013C113.705 65.0013 113.656 65.0013 113.604 65.0013C113.361 64.2726 113.561 63.3474 113.614 62.5878C113.623 62.453 113.632 62.3181 113.641 62.1825C113.661 61.8931 113.68 61.6045 113.7 61.3152C113.753 60.5398 113.805 59.7645 113.856 58.9892C113.864 58.8701 113.864 58.8701 113.872 58.7488C113.981 57.0971 114.085 55.4455 114.183 53.7931C114.189 53.6951 114.189 53.6951 114.195 53.5949C114.303 51.7933 114.398 49.9917 114.48 48.1886C114.558 46.4699 114.653 44.7542 114.794 43.0392C114.81 42.8418 114.826 42.6436 114.842 42.4462C115.059 39.7314 115.337 36.9947 115.94 34.3341C115.961 34.2422 115.982 34.1503 116.003 34.0561C116.175 33.3229 116.406 32.6252 116.674 31.9229C116.704 31.8446 116.704 31.8446 116.734 31.7647C117.424 29.9526 117.424 29.9526 117.749 29.5118C117.936 29.4296 117.936 29.4296 118.125 29.4364C119.565 30.3821 120.254 33.1428 120.612 34.7109C120.641 34.8367 120.671 34.9618 120.702 35.0876C120.765 35.3513 120.827 35.6151 120.89 35.8788C120.922 36.0167 120.955 36.1553 120.989 36.2932C121.005 36.364 121.022 36.4349 121.039 36.5079C121.243 37.3639 121.468 38.2086 121.732 39.048C122.597 41.802 123.132 44.6103 123.583 47.4562C123.735 48.4177 123.893 49.3784 124.05 50.3391C124.106 50.6751 124.161 51.0112 124.215 51.348C124.385 52.3848 124.556 53.4208 124.756 54.4524C124.822 54.8118 124.886 55.1712 124.949 55.5306C124.972 55.6587 124.972 55.6587 124.996 55.7891C125.299 57.5485 125.311 59.3365 125.307 61.1163C125.307 61.2881 125.307 61.4606 125.306 61.6332C125.304 63.6412 125.235 65.638 125.057 67.6385C125.05 67.7191 125.05 67.7191 125.042 67.802C124.987 68.4282 124.919 69.0505 124.831 69.6729C124.814 69.7942 124.814 69.7942 124.797 69.9186C124.761 70.165 124.724 70.4114 124.685 70.657C124.669 70.7655 124.669 70.7655 124.652 70.8763C124.541 71.5363 124.358 72.1361 123.913 72.6492C123.853 72.7185 123.794 72.7886 123.733 72.8602C123.617 72.989 123.5 73.1171 123.382 73.2437C122.306 74.3966 121.525 75.725 121.454 77.3254C121.45 77.4023 121.444 77.4784 121.44 77.5575C121.42 77.9764 121.415 78.2831 121.667 78.6395C122.508 79.234 123.547 79.176 124.525 79.0117C127.401 78.476 130.113 77.131 132.62 75.6647C132.814 75.5524 133.01 75.4439 133.206 75.3362C134.268 74.7507 135.214 74.0778 135.908 73.0636C135.953 72.9973 135.998 72.9318 136.045 72.8632C136.648 71.91 136.975 70.8115 136.972 69.6872C136.972 69.5878 136.972 69.5878 136.972 69.4861C136.972 69.263 136.972 69.0408 136.972 68.8177C136.972 68.6565 136.972 68.496 136.972 68.3347C136.972 67.8917 136.972 67.4486 136.971 67.0048C136.971 66.5279 136.971 66.0501 136.971 65.5724C136.971 64.7443 136.971 63.917 136.97 63.0889C136.969 62.2209 136.969 61.3521 136.969 60.4841C136.969 60.4306 136.969 60.3763 136.969 60.3206C136.969 60.0463 136.969 59.7728 136.969 59.4985C136.969 57.5568 136.969 55.615 136.968 53.6733C136.967 51.7873 136.966 49.9005 136.966 48.0145C136.966 47.9565 136.966 47.8977 136.966 47.8382C136.966 47.2543 136.966 46.6703 136.966 46.0863C136.966 44.8973 136.966 43.7076 136.966 42.5178C136.966 42.4357 136.966 42.4357 136.966 42.352C136.965 38.6999 136.963 35.0477 136.963 31.3955C136.702 31.3119 136.442 31.229 136.182 31.1453C136.109 31.122 136.037 31.0986 135.962 31.0745C135.239 30.8439 134.511 30.642 133.778 30.4438C133.59 30.3926 133.401 30.3414 133.212 30.2901C133.087 30.2562 132.962 30.2223 132.838 30.1884C132.537 30.107 132.237 30.0241 131.937 29.939C131.216 29.7348 130.495 29.5547 129.762 29.3987C129.656 29.3761 129.551 29.3535 129.445 29.3309C129.138 29.2646 128.83 29.1998 128.524 29.135C128.403 29.1094 128.403 29.1094 128.281 29.083C122.419 27.833 116.635 27.5338 110.741 28.7583C110.599 28.7869 110.456 28.8155 110.315 28.8434C108.924 29.123 107.543 29.4334 106.168 29.7853C106.102 29.8019 106.036 29.8184 105.967 29.8358C105.143 30.0452 104.332 30.2796 103.523 30.5403C103.141 30.6639 102.755 30.7746 102.368 30.8824C101.937 31.0022 101.511 31.128 101.09 31.278C100.946 31.3202 100.946 31.3202 100.72 31.3202C100.721 35.0635 100.723 38.8076 100.728 42.551C100.728 42.6346 100.728 42.6346 100.728 42.7197C100.729 43.9261 100.731 45.1324 100.732 46.3388C100.733 46.9303 100.734 47.5218 100.735 48.114C100.735 48.1728 100.735 48.2315 100.735 48.2918C100.738 50.1974 100.739 52.1022 100.74 54.0071C100.741 55.9661 100.742 57.9252 100.746 59.8843C100.746 60.1623 100.747 60.4396 100.747 60.7169C100.747 60.7712 100.748 60.8262 100.748 60.8819C100.748 61.7575 100.749 62.6323 100.749 63.5071C100.749 64.3894 100.75 65.271 100.752 66.1534C100.753 66.6303 100.754 67.1073 100.753 67.5843C100.717 72.4209 100.717 72.4209 102.933 76.5953C103.206 76.8537 103.522 77.0459 103.842 77.2395C104.015 77.3465 104.176 77.4603 104.336 77.5846C103.913 77.5386 103.559 77.3894 103.173 77.2222C103.07 77.177 103.07 77.177 102.964 77.1318C101.677 76.5636 100.442 75.9028 99.288 75.0981C99.2458 75.0687 99.2036 75.0393 99.1607 75.0099C98.5549 74.5834 98.0146 74.1005 97.4796 73.5911C97.4239 73.5406 97.3689 73.4909 97.3124 73.4389C96.1881 72.3817 95.4859 70.9124 95.4241 69.3708C95.4136 68.924 95.4158 68.4771 95.4173 68.0303C95.4173 67.8578 95.4173 67.6845 95.4173 67.5119C95.4166 67.0395 95.4173 66.567 95.4188 66.0946C95.4196 65.6365 95.4196 65.1783 95.4188 64.7202C95.4188 63.7844 95.4196 62.8478 95.4211 61.912C95.4226 60.9859 95.4233 60.0591 95.4233 59.1331C95.4233 59.0751 95.4233 59.0178 95.4233 58.9583C95.4233 58.6652 95.4233 58.372 95.4233 58.0789C95.4241 56.0061 95.4256 53.9332 95.4279 51.8604C95.4301 49.847 95.4316 47.8337 95.4324 45.8204C95.4324 45.7586 95.4324 45.696 95.4324 45.6327C95.4331 45.0089 95.4331 44.385 95.4331 43.7611C95.4339 42.4907 95.4346 41.2203 95.4354 39.9499C95.4354 39.8911 95.4354 39.8331 95.4354 39.7728C95.4377 35.875 95.4407 31.9779 95.4452 28.0801C95.7707 28.0191 96.097 27.9588 96.4232 27.8985C96.5611 27.8729 96.5611 27.8729 96.702 27.8465C97.3365 27.729 97.9709 27.6182 98.6091 27.5203C98.7041 27.5052 98.799 27.4909 98.8969 27.4758C99.1999 27.4284 99.5028 27.3824 99.8057 27.3364C99.9127 27.3199 100.02 27.3033 100.127 27.2867C104.343 26.6425 108.573 26.1165 112.827 25.7963C112.908 25.7903 112.99 25.7835 113.073 25.7775C114.912 25.6403 116.743 25.5748 118.586 25.5748Z" fill="white"/>
<defs>
<linearGradient id="paint0_linear_149_3968" x1="119.019" y1="0.322266" x2="119.019" y2="238.371" gradientUnits="userSpaceOnUse">
<stop stop-color="#51A8ED"/>
<stop offset="1" stop-color="#91D6F8"/>
</linearGradient>
</defs>
</svg>
