<svg width="284" height="285" viewBox="0 0 284 285" fill="none" xmlns="http://www.w3.org/2000/svg">
<path d="M66.2226 217.822C47.7741 199.349 37.3805 177.379 35.299 152.473L9.61674 155.346L9.27147 155.382L8.92405 155.395C6.91757 155.459 4.28145 155.566 1.67406 155.886C1.11433 155.952 0.557163 156.034 0 156.115C3.27564 188.904 17.764 219.576 41.1168 242.929C68.1163 269.933 104.016 284.801 142.2 284.801C178.203 284.801 212.171 271.569 238.565 247.42L213.42 222.276C193.787 239.702 168.77 249.248 142.27 249.248C113.497 249.248 86.4907 238.088 66.2226 217.822Z" fill="#66B7F0"/>
<path d="M141.102 -2.36556e-07C102.911 -2.36556e-07 67.0212 14.8684 40.0217 41.8666C36.8452 45.0397 33.8496 48.3428 31.0132 51.7621L56.3193 77.0708C59.0592 73.5481 61.9488 70.1468 65.1279 66.9719C85.393 46.7133 112.349 35.5525 141.032 35.5486C169.807 35.5525 196.814 46.7133 217.084 66.9719C236.654 86.5499 247.721 112.429 248.427 140.106C260.186 138.175 271.975 136.285 283.762 134.395C281.693 99.4195 267.035 66.7236 242.185 41.8666C215.186 14.8684 179.293 -2.36556e-07 141.117 -2.36556e-07H141.102Z" fill="#66B7F0"/>
<path d="M21.699 37.6374L13.3091 94.5761L69.9261 86.0091L50.8653 66.8916L36.5027 52.4835L21.699 37.6374Z" fill="#51A8ED"/>
<path d="M222.931 231.69L237.083 245.798L251.575 260.245L260.043 204.272L203.748 212.566L222.931 231.69Z" fill="#51A8ED"/>
</svg>
