<svg width="25" height="25" viewBox="0 0 25 25" fill="none" xmlns="http://www.w3.org/2000/svg">
<path d="M10.3185 21.4132C11.0237 22.0356 11.9499 22.4132 12.9644 22.4132C13.9788 22.4132 14.905 22.0356 15.6102 21.4132M18.9644 8.41321C18.9644 6.82191 18.3322 5.29579 17.207 4.17057C16.0818 3.04535 14.5557 2.41321 12.9644 2.41321C11.3731 2.41321 9.84693 3.04535 8.72171 4.17057C7.5965 5.29579 6.96435 6.82191 6.96435 8.41321C6.96435 11.5034 6.18483 13.6192 5.31402 15.0186C4.57948 16.1991 4.21221 16.7893 4.22568 16.954C4.24059 17.1363 4.27922 17.2058 4.42613 17.3148C4.55881 17.4132 5.15695 17.4132 6.35321 17.4132H19.5755C20.7718 17.4132 21.3699 17.4132 21.5026 17.3148C21.6495 17.2058 21.6881 17.1363 21.703 16.954C21.7165 16.7893 21.3492 16.1991 20.6147 15.0186C19.7439 13.6192 18.9644 11.5034 18.9644 8.41321Z" stroke="black" stroke-width="2" stroke-linecap="round" stroke-linejoin="round"/>
</svg>
