<svg width="21" height="20" viewBox="0 0 21 20" fill="none" xmlns="http://www.w3.org/2000/svg">
    <path d="M10.9001 0.833374C15.9622 0.833374 20.0657 4.93679 20.0657 9.99892C20.0657 15.0611 15.9622 19.1645 10.9001 19.1645C9.41734 19.1664 7.9564 18.8072 6.64364 18.1178L2.71162 19.1416C2.58023 19.1758 2.44219 19.1751 2.31117 19.1395C2.18014 19.1039 2.06069 19.0347 1.96464 18.9388C1.86859 18.8428 1.79929 18.7234 1.76359 18.5925C1.7279 18.4615 1.72706 18.3234 1.76115 18.192L2.78403 14.2609C2.09276 12.9467 1.73253 11.4838 1.73457 9.99892C1.73457 4.93679 5.83799 0.833374 10.9001 0.833374Z" fill="#D4D6DD"/>
</svg>
