<svg width="25" height="25" viewBox="0 0 25 25" fill="none" xmlns="http://www.w3.org/2000/svg">
<path d="M9.96436 11.4132L11.9644 13.4132L16.4644 8.91321M12.9575 5.54902C10.9582 3.21161 7.6241 2.58285 5.11905 4.72322C2.614 6.86359 2.26132 10.4422 4.22855 12.9736C5.71445 14.8856 9.93565 18.7242 11.9124 20.4881C12.2757 20.8124 12.4574 20.9745 12.6702 21.0383C12.8549 21.0937 13.0601 21.0937 13.2448 21.0383C13.4576 20.9745 13.6393 20.8124 14.0026 20.4881C15.9794 18.7242 20.2006 14.8856 21.6865 12.9736C23.6537 10.4422 23.3441 6.84108 20.796 4.72322C18.2479 2.60537 14.9569 3.21161 12.9575 5.54902Z" stroke="black" stroke-width="2" stroke-linecap="round" stroke-linejoin="round"/>
</svg>
