<svg width="21" height="20" viewBox="0 0 21 20" fill="none" xmlns="http://www.w3.org/2000/svg">
<path d="M12.5408 7.5H12.6008C13.9792 7.5 15.1009 6.37833 15.1009 5V2.5C15.1009 1.12167 13.9792 0 12.6008 0H7.60064C6.22227 0 5.10057 1.12167 5.10057 2.5V5C5.10057 6.37833 6.22227 7.5 7.60064 7.5H7.76898L9.29736 8.8475C9.53903 9.06083 9.84154 9.1675 10.1441 9.1675C10.4424 9.1675 10.7407 9.0625 10.9757 8.85417L12.5408 7.50083V7.5ZM4.68389 15C6.29227 15 7.60064 13.6917 7.60064 12.0833C7.60064 10.475 6.29227 9.16667 4.68389 9.16667C3.07551 9.16667 1.76714 10.475 1.76714 12.0833C1.76714 13.6917 3.07551 15 4.68389 15ZM12.6008 12.0833C12.6008 13.6917 13.9092 15 15.5175 15C17.1259 15 18.4343 13.6917 18.4343 12.0833C18.4343 10.475 17.1259 9.16667 15.5175 9.16667C13.9092 9.16667 12.6008 10.475 12.6008 12.0833ZM4.68389 15.8333C2.6555 15.8333 0.835445 17.055 0.152925 18.8742C0.057089 19.13 0.0929234 19.4167 0.247928 19.6417C0.404599 19.8667 0.659607 20 0.932948 20H8.43317C8.70651 20 8.96235 19.8658 9.11819 19.6417C9.27403 19.4167 9.30903 19.13 9.21319 18.8742C8.5315 17.055 6.71062 15.8333 4.68222 15.8333H4.68389ZM20.0485 18.8742C19.3668 17.055 17.5459 15.8333 15.5175 15.8333C13.4891 15.8333 11.6691 17.055 10.9866 18.8742C10.8907 19.13 10.9266 19.4167 11.0816 19.6417C11.2382 19.8667 11.4933 20 11.7666 20H19.2668C19.5402 20 19.796 19.8658 19.9518 19.6417C20.1077 19.4167 20.1427 19.13 20.0468 18.8742H20.0485Z" fill="#D4D6DD"/>
</svg>
