<svg width="18" height="18" viewBox="0 0 18 18" fill="none" xmlns="http://www.w3.org/2000/svg">
    <path d="M1.061 7.61a.695.695 0 0 1-.694-.694V1.36A.695.695 0 0 1 1.06.667h5.556a.695.695 0 0 1 .695.694v5.555a.695.695 0 0 1-.695.694H1.061Zm9.723 0a.695.695 0 0 1-.694-.694V1.36a.695.695 0 0 1 .694-.694h5.555a.694.694 0 0 1 .694.694v5.555a.694.694 0 0 1-.694.694h-5.555Zm-9.723 9.723a.695.695 0 0 1-.694-.694v-5.556a.694.694 0 0 1 .694-.695h5.556a.694.694 0 0 1 .695.695v5.556a.695.695 0 0 1-.695.694H1.061Zm9.723 0a.695.695 0 0 1-.694-.694v-5.556a.695.695 0 0 1 .694-.695h5.555a.694.694 0 0 1 .694.695v5.556a.694.694 0 0 1-.694.694h-5.555Z" fill="#D4D6DD"/>
</svg>
