<svg width="21" height="21" viewBox="0 0 21 21" fill="none" xmlns="http://www.w3.org/2000/svg">
<mask id="mask0_1_3878" style="mask-type:alpha" maskUnits="userSpaceOnUse" x="1" y="0" width="20" height="20">
<path fill-rule="evenodd" clip-rule="evenodd" d="M8.9981 0.829895C4.79455 0.829895 1.38101 4.21039 1.38101 8.38768C1.38101 12.565 4.79455 15.9455 8.9981 15.9455C10.5653 15.9455 12.0231 15.4754 13.2347 14.6695L18.2039 19.5978C18.7401 20.1295 19.608 20.1295 20.1441 19.5978C20.6822 19.0641 20.6822 18.1975 20.1441 17.6638L15.2067 12.7671C16.0933 11.5318 16.6152 10.0199 16.6152 8.38768C16.6152 4.21039 13.2016 0.829895 8.9981 0.829895ZM4.1283 8.38768C4.1283 5.72545 6.30533 3.56142 8.9981 3.56142C11.6909 3.56142 13.8679 5.72545 13.8679 8.38768C13.8679 11.0499 11.6909 13.2139 8.9981 13.2139C6.30533 13.2139 4.1283 11.0499 4.1283 8.38768Z" fill="#66B7F0"/>
</mask>
<g mask="url(#mask0_1_3878)">
<rect x="0.964355" y="0.413208" width="20" height="20" fill="#2F3036"/>
</g>
</svg>
