<svg width="25" height="25" viewBox="0 0 25 25" fill="none" xmlns="http://www.w3.org/2000/svg">
    <path fill-rule="evenodd" clip-rule="evenodd" d="M9.6331 1.71714C10.5289 0.874391 11.7285 0.413208 12.9645 0.413208C14.2004 0.413208 15.4 0.874391 16.2958 1.71714C17.1943 2.56232 17.7145 3.72554 17.7145 4.95581V11.7143C17.7145 12.4046 17.1548 12.9643 16.4645 12.9643C15.7741 12.9643 15.2145 12.4046 15.2145 11.7143V4.95581C15.2145 4.43957 14.9972 3.92781 14.5828 3.53803C14.1659 3.14582 13.585 2.91321 12.9645 2.91321C12.3439 2.91321 11.763 3.14582 11.3461 3.53803C10.9318 3.92781 10.7145 4.43957 10.7145 4.95581V11.7143C10.7145 12.4046 10.1548 12.9643 9.46447 12.9643C8.77411 12.9643 8.21447 12.4046 8.21447 11.7143V4.95581C8.21447 3.72554 8.73468 2.56232 9.6331 1.71714Z" fill="#66B7F0"/>
    <path fill-rule="evenodd" clip-rule="evenodd" d="M3.83747 10.6282C3.95928 8.9277 5.37434 7.61038 7.07916 7.61038H18.8497C20.5545 7.61038 21.9696 8.9277 22.0914 10.6282L22.8077 20.6282C22.9425 22.5097 21.4524 24.1104 19.566 24.1104H6.36281C4.47644 24.1104 2.98633 22.5097 3.12112 20.6282L3.83747 10.6282ZM7.07916 10.1104C6.68574 10.1104 6.35919 10.4144 6.33108 10.8068L5.61473 20.8068C5.58363 21.241 5.92749 21.6104 6.36281 21.6104H19.566C20.0013 21.6104 20.3452 21.241 20.3141 20.8068L19.5978 10.8068C19.5696 10.4144 19.2431 10.1104 18.8497 10.1104H7.07916Z" fill="#66B7F0"/>
</svg>
